<svg width="883" height="149" viewBox="0 0 883 149" fill="none" xmlns="http://www.w3.org/2000/svg">
<g clip-path="url(#clip0_36_18)">
<path d="M148.951 82.0662C154.297 85.1428 154.297 92.8572 148.951 95.9338L102.585 122.616C94.5895 127.217 86.4418 116.867 92.7919 110.175L107.661 94.5068C110.59 91.4199 110.59 86.5801 107.661 83.4932L92.7919 67.8246C86.4418 61.1329 94.5895 50.7826 102.585 55.3839L148.951 82.0662Z" fill="#B94DDF"/>
<path d="M37.049 55.0662C31.7026 58.1428 31.7026 65.8571 37.049 68.9338L83.4149 95.6161C91.4105 100.217 99.5582 89.8671 93.2081 83.1754L78.3392 67.5068C75.4099 64.4199 75.4099 59.5801 78.3392 56.4932L93.2081 40.8246C99.5582 34.133 91.4105 23.7826 83.4149 28.3839L37.049 55.0662Z" fill="#958AE3"/>
<path d="M191.328 102.64C188.128 102.64 185.355 102.107 183.008 101.04C180.661 99.9733 178.848 98.4587 177.568 96.496C176.331 94.4907 175.691 92.144 175.648 89.456H183.648C183.648 91.376 184.331 92.8907 185.696 94C187.104 95.0667 189.003 95.6 191.392 95.6C193.696 95.6 195.488 95.0667 196.768 94C198.091 92.9333 198.752 91.4613 198.752 89.584C198.752 88.0053 198.283 86.64 197.344 85.488C196.448 84.2933 195.147 83.4827 193.44 83.056L188.064 81.584C184.395 80.6453 181.557 78.96 179.552 76.528C177.589 74.096 176.608 71.152 176.608 67.696C176.608 65.0507 177.205 62.7467 178.4 60.784C179.595 58.8213 181.28 57.3067 183.456 56.24C185.675 55.1733 188.277 54.64 191.264 54.64C195.787 54.64 199.371 55.8133 202.016 58.16C204.661 60.464 206.005 63.5787 206.048 67.504H198.048C198.048 65.6693 197.451 64.24 196.256 63.216C195.061 62.1493 193.376 61.616 191.2 61.616C189.109 61.616 187.488 62.1067 186.336 63.088C185.184 64.0693 184.608 65.456 184.608 67.248C184.608 68.8693 185.035 70.256 185.888 71.408C186.784 72.5173 188.064 73.3067 189.728 73.776L195.296 75.312C199.008 76.2507 201.845 77.936 203.808 80.368C205.771 82.7573 206.752 85.7227 206.752 89.264C206.752 91.9093 206.112 94.256 204.832 96.304C203.552 98.3093 201.76 99.8667 199.456 100.976C197.152 102.085 194.443 102.64 191.328 102.64ZM228.039 102.64C225.052 102.64 222.45 102.064 220.231 100.912C218.012 99.76 216.284 98.16 215.047 96.112C213.852 94.0213 213.255 91.5893 213.255 88.816V79.984C213.255 77.2107 213.852 74.8 215.047 72.752C216.284 70.6613 218.012 69.04 220.231 67.888C222.45 66.736 225.052 66.16 228.039 66.16C230.983 66.16 233.543 66.736 235.719 67.888C237.938 69.04 239.644 70.6613 240.839 72.752C242.076 74.8 242.695 77.2107 242.695 79.984V86.32H220.999V88.816C220.999 91.2907 221.596 93.168 222.791 94.448C223.986 95.6853 225.756 96.304 228.103 96.304C229.895 96.304 231.346 96.0053 232.455 95.408C233.564 94.768 234.268 93.8507 234.567 92.656H242.439C241.842 95.6853 240.22 98.1173 237.575 99.952C234.972 101.744 231.794 102.64 228.039 102.64ZM234.951 81.84V79.92C234.951 77.488 234.375 75.632 233.223 74.352C232.071 73.0293 230.343 72.368 228.039 72.368C225.735 72.368 223.986 73.0293 222.791 74.352C221.596 75.6747 220.999 77.552 220.999 79.984V81.328L235.527 81.2L234.951 81.84ZM267.758 102.64C264.857 102.64 262.553 101.829 260.846 100.208C259.139 98.544 258.286 96.2827 258.286 93.424L260.078 95.28H258.286V102H250.478V55.28H258.478V65.136L258.222 73.52H260.078L258.286 75.376C258.286 72.5173 259.139 70.2773 260.846 68.656C262.553 66.992 264.857 66.16 267.758 66.16C271.299 66.16 274.137 67.376 276.27 69.808C278.403 72.24 279.47 75.5253 279.47 79.664V89.2C279.47 93.296 278.403 96.56 276.27 98.992C274.137 101.424 271.299 102.64 267.758 102.64ZM264.942 95.728C266.99 95.728 268.59 95.1307 269.742 93.936C270.894 92.7413 271.47 91.0347 271.47 88.816V79.984C271.47 77.7653 270.894 76.0587 269.742 74.864C268.59 73.6693 266.99 73.072 264.942 73.072C262.937 73.072 261.358 73.6907 260.206 74.928C259.054 76.1227 258.478 77.808 258.478 79.984V88.816C258.478 90.992 259.054 92.6987 260.206 93.936C261.358 95.1307 262.937 95.728 264.942 95.728ZM297.621 102.64C293.994 102.64 291.136 101.68 289.045 99.76C286.954 97.84 285.909 95.2587 285.909 92.016C285.909 88.56 287.061 85.8933 289.365 84.016C291.669 82.1387 294.933 81.2 299.157 81.2H307.925V78.192C307.925 76.4853 307.37 75.1627 306.261 74.224C305.152 73.2427 303.637 72.752 301.717 72.752C299.968 72.752 298.517 73.136 297.365 73.904C296.213 74.672 295.53 75.7173 295.317 77.04H287.509C287.893 73.712 289.386 71.0667 291.989 69.104C294.592 67.1413 297.92 66.16 301.973 66.16C306.282 66.16 309.674 67.248 312.149 69.424C314.666 71.5573 315.925 74.4587 315.925 78.128V102H308.181V95.856H306.901L308.181 94.128C308.181 96.7307 307.221 98.8 305.301 100.336C303.381 101.872 300.821 102.64 297.621 102.64ZM300.245 96.624C302.506 96.624 304.341 96.048 305.749 94.896C307.2 93.744 307.925 92.2507 307.925 90.416V86.128H299.285C297.664 86.128 296.362 86.5973 295.381 87.536C294.4 88.4747 293.909 89.712 293.909 91.248C293.909 92.912 294.464 94.2347 295.573 95.216C296.725 96.1547 298.282 96.624 300.245 96.624ZM336.956 102.576C334.268 102.576 331.921 102.149 329.916 101.296C327.911 100.443 326.332 99.2693 325.18 97.776C324.071 96.24 323.473 94.448 323.388 92.4H331.388C331.473 93.5093 332.007 94.4053 332.988 95.088C334.012 95.7707 335.335 96.112 336.956 96.112H339.772C341.735 96.112 343.207 95.728 344.188 94.96C345.169 94.192 345.66 93.1467 345.66 91.824C345.66 90.5867 345.212 89.6267 344.316 88.944C343.463 88.2187 342.119 87.7493 340.284 87.536L335.932 86.896C331.921 86.3413 328.977 85.2747 327.1 83.696C325.223 82.1173 324.284 79.7493 324.284 76.592C324.284 73.3067 325.393 70.768 327.612 68.976C329.831 67.1413 333.095 66.224 337.404 66.224H339.836C343.761 66.224 346.897 67.0987 349.244 68.848C351.591 70.5973 352.849 72.944 353.02 75.888H345.02C344.892 74.9493 344.359 74.1813 343.42 73.584C342.524 72.9867 341.329 72.688 339.836 72.688H337.404C335.569 72.688 334.225 73.0293 333.372 73.712C332.561 74.352 332.156 75.312 332.156 76.592C332.156 77.7867 332.519 78.6827 333.244 79.28C333.969 79.8347 335.143 80.24 336.764 80.496L341.308 81.136C345.489 81.7333 348.561 82.864 350.524 84.528C352.529 86.1493 353.532 88.56 353.532 91.76C353.532 95.1733 352.359 97.84 350.012 99.76C347.708 101.637 344.295 102.576 339.772 102.576H336.956ZM378.915 102C375.544 102 372.899 101.061 370.979 99.184C369.102 97.3067 368.163 94.7253 368.163 91.44V74.032H358.627V66.8H368.163V56.88H376.227V66.8H389.731V74.032H376.227V91.44C376.227 93.6587 377.315 94.768 379.491 94.768H389.091V102H378.915ZM397.514 102V94.704H409.802V74.032H399.114V66.8H417.482V94.704H428.362V102H397.514ZM413.002 60.912C411.381 60.912 410.101 60.5067 409.162 59.696C408.223 58.8427 407.754 57.712 407.754 56.304C407.754 54.896 408.223 53.7867 409.162 52.976C410.101 52.1227 411.381 51.696 413.002 51.696C414.623 51.696 415.903 52.1227 416.842 52.976C417.781 53.7867 418.25 54.896 418.25 56.304C418.25 57.712 417.781 58.8427 416.842 59.696C415.903 60.5067 414.623 60.912 413.002 60.912ZM444.721 102.64C441.094 102.64 438.236 101.68 436.145 99.76C434.054 97.84 433.009 95.2587 433.009 92.016C433.009 88.56 434.161 85.8933 436.465 84.016C438.769 82.1387 442.033 81.2 446.257 81.2H455.025V78.192C455.025 76.4853 454.47 75.1627 453.361 74.224C452.252 73.2427 450.737 72.752 448.817 72.752C447.068 72.752 445.617 73.136 444.465 73.904C443.313 74.672 442.63 75.7173 442.417 77.04H434.609C434.993 73.712 436.486 71.0667 439.089 69.104C441.692 67.1413 445.02 66.16 449.073 66.16C453.382 66.16 456.774 67.248 459.249 69.424C461.766 71.5573 463.025 74.4587 463.025 78.128V102H455.281V95.856H454.001L455.281 94.128C455.281 96.7307 454.321 98.8 452.401 100.336C450.481 101.872 447.921 102.64 444.721 102.64ZM447.345 96.624C449.606 96.624 451.441 96.048 452.849 94.896C454.3 93.744 455.025 92.2507 455.025 90.416V86.128H446.385C444.764 86.128 443.462 86.5973 442.481 87.536C441.5 88.4747 441.009 89.712 441.009 91.248C441.009 92.912 441.564 94.2347 442.673 95.216C443.825 96.1547 445.382 96.624 447.345 96.624ZM471.128 102V66.8H478.936V73.52H481.112L478.936 75.376C478.936 72.4747 479.768 70.2133 481.432 68.592C483.139 66.9707 485.464 66.16 488.408 66.16C491.864 66.16 494.616 67.312 496.664 69.616C498.755 71.92 499.8 75.0133 499.8 78.896V102H491.8V79.728C491.8 77.5947 491.245 75.952 490.136 74.8C489.027 73.648 487.469 73.072 485.464 73.072C483.501 73.072 481.944 73.6693 480.792 74.864C479.683 76.0587 479.128 77.7653 479.128 79.984V102H471.128ZM544.678 102V55.28H552.678V74.032H565.222V55.28H573.222V102H565.222V81.456H552.678V102H544.678ZM595.725 102.576C592.738 102.576 590.136 102.021 587.917 100.912C585.741 99.76 584.034 98.16 582.797 96.112C581.602 94.0213 581.005 91.568 581.005 88.752V80.048C581.005 77.232 581.602 74.8 582.797 72.752C584.034 70.6613 585.741 69.0613 587.917 67.952C590.136 66.8 592.738 66.224 595.725 66.224C598.754 66.224 601.357 66.8 603.533 67.952C605.709 69.0613 607.394 70.6613 608.589 72.752C609.826 74.8 610.445 77.2107 610.445 79.984V88.752C610.445 91.568 609.826 94.0213 608.589 96.112C607.394 98.16 605.709 99.76 603.533 100.912C601.357 102.021 598.754 102.576 595.725 102.576ZM595.725 95.6C597.858 95.6 599.501 95.024 600.653 93.872C601.848 92.6773 602.445 90.9707 602.445 88.752V80.048C602.445 77.7867 601.848 76.08 600.653 74.928C599.501 73.776 597.858 73.2 595.725 73.2C593.634 73.2 591.992 73.776 590.797 74.928C589.602 76.08 589.005 77.7867 589.005 80.048V88.752C589.005 90.9707 589.602 92.6773 590.797 93.872C591.992 95.024 593.634 95.6 595.725 95.6ZM637.876 102C635.572 102 633.545 101.531 631.796 100.592C630.089 99.6533 628.745 98.3307 627.764 96.624C626.783 94.8747 626.292 92.8693 626.292 90.608V62.512H615.028V55.28H634.292V90.608C634.292 91.888 634.655 92.912 635.38 93.68C636.148 94.4053 637.172 94.768 638.452 94.768H649.076V102H637.876ZM667.931 102.576C665.243 102.576 662.896 102.149 660.891 101.296C658.886 100.443 657.307 99.2693 656.155 97.776C655.046 96.24 654.448 94.448 654.363 92.4H662.363C662.448 93.5093 662.982 94.4053 663.963 95.088C664.987 95.7707 666.31 96.112 667.931 96.112H670.747C672.71 96.112 674.182 95.728 675.163 94.96C676.144 94.192 676.635 93.1467 676.635 91.824C676.635 90.5867 676.187 89.6267 675.291 88.944C674.438 88.2187 673.094 87.7493 671.259 87.536L666.907 86.896C662.896 86.3413 659.952 85.2747 658.075 83.696C656.198 82.1173 655.259 79.7493 655.259 76.592C655.259 73.3067 656.368 70.768 658.587 68.976C660.806 67.1413 664.07 66.224 668.379 66.224H670.811C674.736 66.224 677.872 67.0987 680.219 68.848C682.566 70.5973 683.824 72.944 683.995 75.888H675.995C675.867 74.9493 675.334 74.1813 674.395 73.584C673.499 72.9867 672.304 72.688 670.811 72.688H668.379C666.544 72.688 665.2 73.0293 664.347 73.712C663.536 74.352 663.131 75.312 663.131 76.592C663.131 77.7867 663.494 78.6827 664.219 79.28C664.944 79.8347 666.118 80.24 667.739 80.496L672.283 81.136C676.464 81.7333 679.536 82.864 681.499 84.528C683.504 86.1493 684.507 88.56 684.507 91.76C684.507 95.1733 683.334 97.84 680.987 99.76C678.683 101.637 675.27 102.576 670.747 102.576H667.931ZM709.89 102C706.519 102 703.874 101.061 701.954 99.184C700.077 97.3067 699.138 94.7253 699.138 91.44V74.032H689.602V66.8H699.138V56.88H707.202V66.8H720.706V74.032H707.202V91.44C707.202 93.6587 708.29 94.768 710.466 94.768H720.066V102H709.89ZM742.889 102.64C739.902 102.64 737.3 102.064 735.081 100.912C732.862 99.76 731.134 98.16 729.897 96.112C728.702 94.0213 728.105 91.5893 728.105 88.816V79.984C728.105 77.2107 728.702 74.8 729.897 72.752C731.134 70.6613 732.862 69.04 735.081 67.888C737.3 66.736 739.902 66.16 742.889 66.16C745.833 66.16 748.393 66.736 750.569 67.888C752.788 69.04 754.494 70.6613 755.689 72.752C756.926 74.8 757.545 77.2107 757.545 79.984V86.32H735.849V88.816C735.849 91.2907 736.446 93.168 737.641 94.448C738.836 95.6853 740.606 96.304 742.953 96.304C744.745 96.304 746.196 96.0053 747.305 95.408C748.414 94.768 749.118 93.8507 749.417 92.656H757.289C756.692 95.6853 755.07 98.1173 752.425 99.952C749.822 101.744 746.644 102.64 742.889 102.64ZM749.801 81.84V79.92C749.801 77.488 749.225 75.632 748.073 74.352C746.921 73.0293 745.193 72.368 742.889 72.368C740.585 72.368 738.836 73.0293 737.641 74.352C736.446 75.6747 735.849 77.552 735.849 79.984V81.328L750.377 81.2L749.801 81.84ZM765.264 102V94.704H777.552V74.032H766.864V66.8H785.232V94.704H796.112V102H765.264ZM780.752 60.912C779.131 60.912 777.851 60.5067 776.912 59.696C775.973 58.8427 775.504 57.712 775.504 56.304C775.504 54.896 775.973 53.7867 776.912 52.976C777.851 52.1227 779.131 51.696 780.752 51.696C782.373 51.696 783.653 52.1227 784.592 52.976C785.531 53.7867 786 54.896 786 56.304C786 57.712 785.531 58.8427 784.592 59.696C783.653 60.5067 782.373 60.912 780.752 60.912ZM802.103 102V66.8H809.911V73.52H812.087L809.911 75.376C809.911 72.4747 810.743 70.2133 812.407 68.592C814.114 66.9707 816.439 66.16 819.383 66.16C822.839 66.16 825.591 67.312 827.639 69.616C829.73 71.92 830.775 75.0133 830.775 78.896V102H822.775V79.728C822.775 77.5947 822.22 75.952 821.111 74.8C820.002 73.648 818.444 73.072 816.439 73.072C814.476 73.072 812.919 73.6693 811.767 74.864C810.658 76.0587 810.103 77.7653 810.103 79.984V102H802.103Z" fill="black"/>
</g>
<defs>
<clipPath id="clip0_36_18">
<rect width="883" height="149" fill="white"/>
</clipPath>
</defs>
</svg>
