<svg width="798" height="97" viewBox="0 0 798 97" fill="none" xmlns="http://www.w3.org/2000/svg">
<path d="M115.951 55.0662C121.297 58.1429 121.297 65.8572 115.951 68.9339L69.5851 95.6161C61.5895 100.217 53.4418 89.8671 59.7919 83.1755L74.6608 67.5068C77.5901 64.42 77.5901 59.5801 74.6608 56.4932L59.7919 40.8246C53.4418 34.133 61.5895 23.7827 69.5851 28.3839L115.951 55.0662Z" fill="#B94DDF"/>
<path d="M4.04896 28.0662C-1.29741 31.1429 -1.29741 38.8572 4.04896 41.9338L50.4149 68.6161C58.4105 73.2174 66.5582 62.8671 60.2081 56.1755L45.3392 40.5068C42.4099 37.42 42.4099 32.5801 45.3392 29.4932L60.2081 13.8246C66.5582 7.13298 58.4105 -3.21734 50.4149 1.38391L4.04896 28.0662Z" fill="#958AE3"/>
<path d="M158.328 75.64C155.128 75.64 152.355 75.1067 150.008 74.04C147.661 72.9734 145.848 71.4587 144.568 69.496C143.331 67.4907 142.691 65.144 142.648 62.456H150.648C150.648 64.376 151.331 65.8907 152.696 67C154.104 68.0667 156.003 68.6 158.392 68.6C160.696 68.6 162.488 68.0667 163.768 67C165.091 65.9334 165.752 64.4613 165.752 62.584C165.752 61.0054 165.283 59.64 164.344 58.488C163.448 57.2934 162.147 56.4827 160.44 56.056L155.064 54.584C151.395 53.6454 148.557 51.96 146.552 49.528C144.589 47.096 143.608 44.152 143.608 40.696C143.608 38.0507 144.205 35.7467 145.4 33.784C146.595 31.8213 148.28 30.3067 150.456 29.24C152.675 28.1734 155.277 27.64 158.264 27.64C162.787 27.64 166.371 28.8134 169.016 31.16C171.661 33.464 173.005 36.5787 173.048 40.504H165.048C165.048 38.6693 164.451 37.24 163.256 36.216C162.061 35.1493 160.376 34.616 158.2 34.616C156.109 34.616 154.488 35.1067 153.336 36.088C152.184 37.0694 151.608 38.456 151.608 40.248C151.608 41.8694 152.035 43.256 152.888 44.408C153.784 45.5174 155.064 46.3067 156.728 46.776L162.296 48.312C166.008 49.2507 168.845 50.936 170.808 53.368C172.771 55.7574 173.752 58.7227 173.752 62.264C173.752 64.9094 173.112 67.256 171.832 69.304C170.552 71.3094 168.76 72.8667 166.456 73.976C164.152 75.0854 161.443 75.64 158.328 75.64Z" fill="white"/>
<path d="M195.039 75.64C192.052 75.64 189.45 75.064 187.231 73.912C185.012 72.76 183.284 71.16 182.047 69.112C180.852 67.0214 180.255 64.5894 180.255 61.816V52.984C180.255 50.2107 180.852 47.8 182.047 45.752C183.284 43.6614 185.012 42.04 187.231 40.888C189.45 39.736 192.052 39.16 195.039 39.16C197.983 39.16 200.543 39.736 202.719 40.888C204.938 42.04 206.644 43.6614 207.839 45.752C209.076 47.8 209.695 50.2107 209.695 52.984V59.32H187.999V61.816C187.999 64.2907 188.596 66.168 189.791 67.448C190.986 68.6854 192.756 69.304 195.103 69.304C196.895 69.304 198.346 69.0054 199.455 68.408C200.564 67.768 201.268 66.8507 201.567 65.656H209.439C208.842 68.6854 207.22 71.1174 204.575 72.952C201.972 74.744 198.794 75.64 195.039 75.64ZM201.951 54.84V52.92C201.951 50.488 201.375 48.632 200.223 47.352C199.071 46.0294 197.343 45.368 195.039 45.368C192.735 45.368 190.986 46.0294 189.791 47.352C188.596 48.6747 187.999 50.552 187.999 52.984V54.328L202.527 54.2L201.951 54.84Z" fill="white"/>
<path d="M234.758 75.64C231.857 75.64 229.553 74.8294 227.846 73.208C226.139 71.544 225.286 69.2827 225.286 66.424L227.078 68.28H225.286V75H217.478V28.28H225.478V38.136L225.222 46.52H227.078L225.286 48.376C225.286 45.5174 226.139 43.2774 227.846 41.656C229.553 39.992 231.857 39.16 234.758 39.16C238.299 39.16 241.137 40.376 243.27 42.808C245.403 45.24 246.47 48.5254 246.47 52.664V62.2C246.47 66.296 245.403 69.56 243.27 71.992C241.137 74.424 238.299 75.64 234.758 75.64ZM231.942 68.728C233.99 68.728 235.59 68.1307 236.742 66.936C237.894 65.7414 238.47 64.0347 238.47 61.816V52.984C238.47 50.7654 237.894 49.0587 236.742 47.864C235.59 46.6693 233.99 46.072 231.942 46.072C229.937 46.072 228.358 46.6907 227.206 47.928C226.054 49.1227 225.478 50.808 225.478 52.984V61.816C225.478 63.992 226.054 65.6987 227.206 66.936C228.358 68.1307 229.937 68.728 231.942 68.728Z" fill="white"/>
<path d="M264.621 75.64C260.994 75.64 258.136 74.68 256.045 72.76C253.954 70.84 252.909 68.2587 252.909 65.016C252.909 61.56 254.061 58.8934 256.365 57.016C258.669 55.1387 261.933 54.2 266.157 54.2H274.925V51.192C274.925 49.4854 274.37 48.1627 273.261 47.224C272.152 46.2427 270.637 45.752 268.717 45.752C266.968 45.752 265.517 46.136 264.365 46.904C263.213 47.672 262.53 48.7174 262.317 50.04H254.509C254.893 46.712 256.386 44.0667 258.989 42.104C261.592 40.1414 264.92 39.16 268.973 39.16C273.282 39.16 276.674 40.248 279.149 42.424C281.666 44.5574 282.925 47.4587 282.925 51.128V75H275.181V68.856H273.901L275.181 67.128C275.181 69.7307 274.221 71.8 272.301 73.336C270.381 74.872 267.821 75.64 264.621 75.64ZM267.245 69.624C269.506 69.624 271.341 69.048 272.749 67.896C274.2 66.744 274.925 65.2507 274.925 63.416V59.128H266.285C264.664 59.128 263.362 59.5974 262.381 60.536C261.4 61.4747 260.909 62.712 260.909 64.248C260.909 65.912 261.464 67.2347 262.573 68.216C263.725 69.1547 265.282 69.624 267.245 69.624Z" fill="white"/>
<path d="M303.956 75.576C301.268 75.576 298.921 75.1494 296.916 74.296C294.911 73.4427 293.332 72.2694 292.18 70.776C291.071 69.24 290.473 67.448 290.388 65.4H298.388C298.473 66.5094 299.007 67.4053 299.988 68.088C301.012 68.7707 302.335 69.112 303.956 69.112H306.772C308.735 69.112 310.207 68.728 311.188 67.96C312.169 67.192 312.66 66.1467 312.66 64.824C312.66 63.5867 312.212 62.6267 311.316 61.944C310.463 61.2187 309.119 60.7494 307.284 60.536L302.932 59.896C298.921 59.3414 295.977 58.2747 294.1 56.696C292.223 55.1174 291.284 52.7494 291.284 49.592C291.284 46.3067 292.393 43.768 294.612 41.976C296.831 40.1413 300.095 39.224 304.404 39.224H306.836C310.761 39.224 313.897 40.0987 316.244 41.848C318.591 43.5974 319.849 45.944 320.02 48.888H312.02C311.892 47.9494 311.359 47.1814 310.42 46.584C309.524 45.9867 308.329 45.688 306.836 45.688H304.404C302.569 45.688 301.225 46.0294 300.372 46.712C299.561 47.352 299.156 48.312 299.156 49.592C299.156 50.7867 299.519 51.6827 300.244 52.28C300.969 52.8347 302.143 53.24 303.764 53.496L308.308 54.136C312.489 54.7334 315.561 55.864 317.524 57.528C319.529 59.1494 320.532 61.56 320.532 64.76C320.532 68.1733 319.359 70.84 317.012 72.76C314.708 74.6374 311.295 75.576 306.772 75.576H303.956Z" fill="white"/>
<path d="M345.915 75C342.544 75 339.899 74.0614 337.979 72.184C336.102 70.3067 335.163 67.7253 335.163 64.44V47.032H325.627V39.8H335.163V29.88H343.227V39.8H356.731V47.032H343.227V64.44C343.227 66.6587 344.315 67.768 346.491 67.768H356.091V75H345.915Z" fill="white"/>
<path d="M364.514 75V67.704H376.802V47.032H366.114V39.8H384.482V67.704H395.362V75H364.514ZM380.002 33.912C378.381 33.912 377.101 33.5067 376.162 32.696C375.223 31.8427 374.754 30.712 374.754 29.304C374.754 27.896 375.223 26.7867 376.162 25.976C377.101 25.1227 378.381 24.696 380.002 24.696C381.623 24.696 382.903 25.1227 383.842 25.976C384.781 26.7867 385.25 27.896 385.25 29.304C385.25 30.712 384.781 31.8427 383.842 32.696C382.903 33.5067 381.623 33.912 380.002 33.912Z" fill="white"/>
<path d="M411.721 75.64C408.094 75.64 405.236 74.68 403.145 72.76C401.054 70.84 400.009 68.2587 400.009 65.016C400.009 61.56 401.161 58.8934 403.465 57.016C405.769 55.1387 409.033 54.2 413.257 54.2H422.025V51.192C422.025 49.4854 421.47 48.1627 420.361 47.224C419.252 46.2427 417.737 45.752 415.817 45.752C414.068 45.752 412.617 46.136 411.465 46.904C410.313 47.672 409.63 48.7174 409.417 50.04H401.609C401.993 46.712 403.486 44.0667 406.089 42.104C408.692 40.1414 412.02 39.16 416.073 39.16C420.382 39.16 423.774 40.248 426.249 42.424C428.766 44.5574 430.025 47.4587 430.025 51.128V75H422.281V68.856H421.001L422.281 67.128C422.281 69.7307 421.321 71.8 419.401 73.336C417.481 74.872 414.921 75.64 411.721 75.64ZM414.345 69.624C416.606 69.624 418.441 69.048 419.849 67.896C421.3 66.744 422.025 65.2507 422.025 63.416V59.128H413.385C411.764 59.128 410.462 59.5974 409.481 60.536C408.5 61.4747 408.009 62.712 408.009 64.248C408.009 65.912 408.564 67.2347 409.673 68.216C410.825 69.1547 412.382 69.624 414.345 69.624Z" fill="white"/>
<path d="M438.128 75V39.8H445.936V46.52H448.112L445.936 48.376C445.936 45.4747 446.768 43.2134 448.432 41.592C450.139 39.9707 452.464 39.16 455.408 39.16C458.864 39.16 461.616 40.312 463.664 42.616C465.755 44.92 466.8 48.0134 466.8 51.896V75H458.8V52.728C458.8 50.5947 458.245 48.952 457.136 47.8C456.027 46.648 454.469 46.072 452.464 46.072C450.501 46.072 448.944 46.6693 447.792 47.864C446.683 49.0587 446.128 50.7654 446.128 52.984V75H438.128Z" fill="white"/>
<path d="M511.678 75V28.28H519.678V47.032H532.222V28.28H540.222V75H532.222V54.456H519.678V75H511.678Z" fill="white"/>
<path d="M562.725 75.576C559.738 75.576 557.136 75.0214 554.917 73.912C552.741 72.76 551.034 71.16 549.797 69.112C548.602 67.0214 548.005 64.568 548.005 61.752V53.048C548.005 50.232 548.602 47.8 549.797 45.752C551.034 43.6614 552.741 42.0614 554.917 40.952C557.136 39.8 559.738 39.224 562.725 39.224C565.754 39.224 568.357 39.8 570.533 40.952C572.709 42.0614 574.394 43.6614 575.589 45.752C576.826 47.8 577.445 50.2107 577.445 52.984V61.752C577.445 64.568 576.826 67.0214 575.589 69.112C574.394 71.16 572.709 72.76 570.533 73.912C568.357 75.0214 565.754 75.576 562.725 75.576ZM562.725 68.6C564.858 68.6 566.501 68.024 567.653 66.872C568.848 65.6774 569.445 63.9707 569.445 61.752V53.048C569.445 50.7867 568.848 49.08 567.653 47.928C566.501 46.776 564.858 46.2 562.725 46.2C560.634 46.2 558.992 46.776 557.797 47.928C556.602 49.08 556.005 50.7867 556.005 53.048V61.752C556.005 63.9707 556.602 65.6774 557.797 66.872C558.992 68.024 560.634 68.6 562.725 68.6Z" fill="white"/>
<path d="M604.876 75C602.572 75 600.545 74.5307 598.796 73.592C597.089 72.6534 595.745 71.3307 594.764 69.624C593.783 67.8747 593.292 65.8694 593.292 63.608V35.512H582.028V28.28H601.292V63.608C601.292 64.888 601.655 65.912 602.38 66.68C603.148 67.4054 604.172 67.768 605.452 67.768H616.076V75H604.876Z" fill="white"/>
<path d="M634.931 75.576C632.243 75.576 629.896 75.1494 627.891 74.296C625.886 73.4427 624.307 72.2694 623.155 70.776C622.046 69.24 621.448 67.448 621.363 65.4H629.363C629.448 66.5094 629.982 67.4053 630.963 68.088C631.987 68.7707 633.31 69.112 634.931 69.112H637.747C639.71 69.112 641.182 68.728 642.163 67.96C643.144 67.192 643.635 66.1467 643.635 64.824C643.635 63.5867 643.187 62.6267 642.291 61.944C641.438 61.2187 640.094 60.7494 638.259 60.536L633.907 59.896C629.896 59.3414 626.952 58.2747 625.075 56.696C623.198 55.1174 622.259 52.7494 622.259 49.592C622.259 46.3067 623.368 43.768 625.587 41.976C627.806 40.1413 631.07 39.224 635.379 39.224H637.811C641.736 39.224 644.872 40.0987 647.219 41.848C649.566 43.5974 650.824 45.944 650.995 48.888H642.995C642.867 47.9494 642.334 47.1814 641.395 46.584C640.499 45.9867 639.304 45.688 637.811 45.688H635.379C633.544 45.688 632.2 46.0294 631.347 46.712C630.536 47.352 630.131 48.312 630.131 49.592C630.131 50.7867 630.494 51.6827 631.219 52.28C631.944 52.8347 633.118 53.24 634.739 53.496L639.283 54.136C643.464 54.7334 646.536 55.864 648.499 57.528C650.504 59.1494 651.507 61.56 651.507 64.76C651.507 68.1733 650.334 70.84 647.987 72.76C645.683 74.6374 642.27 75.576 637.747 75.576H634.931Z" fill="white"/>
<path d="M676.89 75C673.519 75 670.874 74.0614 668.954 72.184C667.077 70.3067 666.138 67.7253 666.138 64.44V47.032H656.602V39.8H666.138V29.88H674.202V39.8H687.706V47.032H674.202V64.44C674.202 66.6587 675.29 67.768 677.466 67.768H687.066V75H676.89Z" fill="white"/>
<path d="M709.889 75.64C706.902 75.64 704.3 75.064 702.081 73.912C699.862 72.76 698.134 71.16 696.897 69.112C695.702 67.0214 695.105 64.5894 695.105 61.816V52.984C695.105 50.2107 695.702 47.8 696.897 45.752C698.134 43.6614 699.862 42.04 702.081 40.888C704.3 39.736 706.902 39.16 709.889 39.16C712.833 39.16 715.393 39.736 717.569 40.888C719.788 42.04 721.494 43.6614 722.689 45.752C723.926 47.8 724.545 50.2107 724.545 52.984V59.32H702.849V61.816C702.849 64.2907 703.446 66.168 704.641 67.448C705.836 68.6854 707.606 69.304 709.953 69.304C711.745 69.304 713.196 69.0054 714.305 68.408C715.414 67.768 716.118 66.8507 716.417 65.656H724.289C723.692 68.6854 722.07 71.1174 719.425 72.952C716.822 74.744 713.644 75.64 709.889 75.64ZM716.801 54.84V52.92C716.801 50.488 716.225 48.632 715.073 47.352C713.921 46.0294 712.193 45.368 709.889 45.368C707.585 45.368 705.836 46.0294 704.641 47.352C703.446 48.6747 702.849 50.552 702.849 52.984V54.328L717.377 54.2L716.801 54.84Z" fill="white"/>
<path d="M732.264 75V67.704H744.552V47.032H733.864V39.8H752.232V67.704H763.112V75H732.264ZM747.752 33.912C746.131 33.912 744.851 33.5067 743.912 32.696C742.973 31.8427 742.504 30.712 742.504 29.304C742.504 27.896 742.973 26.7867 743.912 25.976C744.851 25.1227 746.131 24.696 747.752 24.696C749.373 24.696 750.653 25.1227 751.592 25.976C752.531 26.7867 753 27.896 753 29.304C753 30.712 752.531 31.8427 751.592 32.696C750.653 33.5067 749.373 33.912 747.752 33.912Z" fill="white"/>
<path d="M769.103 75V39.8H776.911V46.52H779.087L776.911 48.376C776.911 45.4747 777.743 43.2134 779.407 41.592C781.114 39.9707 783.439 39.16 786.383 39.16C789.839 39.16 792.591 40.312 794.639 42.616C796.73 44.92 797.775 48.0134 797.775 51.896V75H789.775V52.728C789.775 50.5947 789.22 48.952 788.111 47.8C787.002 46.648 785.444 46.072 783.439 46.072C781.476 46.072 779.919 46.6693 778.767 47.864C777.658 49.0587 777.103 50.7654 777.103 52.984V75H769.103Z" fill="white"/>
</svg>
