<svg width="136" height="149" viewBox="0 0 136 149" fill="none" xmlns="http://www.w3.org/2000/svg">
<path d="M123.951 81.0662C129.297 84.1428 129.297 91.8572 123.951 94.9338L77.5851 121.616C69.5895 126.217 61.4418 115.867 67.7919 109.175L82.6608 93.5068C85.5901 90.4199 85.5901 85.5801 82.6608 82.4932L67.7919 66.8246C61.4418 60.1329 69.5895 49.7826 77.5851 54.3839L123.951 81.0662Z" fill="#B94DDF"/>
<path d="M12.049 54.0662C6.7026 57.1428 6.7026 64.8571 12.049 67.9338L58.4149 94.6161C66.4105 99.2173 74.5582 88.8671 68.2081 82.1754L53.3392 66.5068C50.4099 63.4199 50.4099 58.5801 53.3392 55.4932L68.2081 39.8246C74.5582 33.133 66.4105 22.7826 58.4149 27.3839L12.049 54.0662Z" fill="#958AE3"/>
</svg>
